<svg width="360" height="44" viewBox="0 0 360 44" fill="none" xmlns="http://www.w3.org/2000/svg">
<rect width="360" height="44" fill="white"/>
<path d="M141.452 14.6018V29.4538C141.452 30.9164 140.381 31.9963 138.962 31.9963C137.544 31.9963 136.473 30.9145 136.473 29.4538V22.7013L133.984 26.7066C133.29 27.8168 132.652 28.2564 131.726 28.2564C130.799 28.2564 130.163 27.8187 129.467 26.7066L126.978 22.7013V29.4557C126.978 30.9183 125.907 31.9982 124.489 31.9982C123.071 31.9982 122 30.9164 122 29.4557V14.6018C122 13.1126 123.043 12.0005 124.489 12.0005C125.502 12.0005 126.196 12.4969 127.006 13.8421L131.724 21.502L136.443 13.8421C137.254 12.4988 137.95 12.0005 138.962 12.0005C140.409 12.0005 141.452 13.1126 141.452 14.6018Z" fill="#783CBD"/>
<path d="M160.095 15.9768L155.086 24.3378V29.4533C155.086 30.9159 154.015 31.9959 152.597 31.9959C151.179 31.9959 150.108 30.914 150.108 29.4533V24.3378L145.1 15.9768C144.753 15.4217 144.608 14.9234 144.608 14.3683C144.608 13.0231 145.649 12 147.011 12C148.054 12 148.806 12.468 149.328 13.4626L152.599 19.4269L155.87 13.4626C156.39 12.4983 157.142 12 158.183 12C159.543 12 160.586 13.0231 160.586 14.3683C160.586 14.9234 160.442 15.4217 160.095 15.9768Z" fill="#783CBD"/>
<path d="M163.716 29.8648C163.078 29.2509 162.703 28.5783 162.703 27.8186C162.731 26.4734 163.802 25.5962 164.932 25.5962C165.309 25.5962 165.714 25.7136 166.061 25.9467C166.494 26.2384 167.71 27.5836 169.707 27.5836C171.039 27.5836 171.675 27.1157 171.675 26.1797C171.675 25.2741 171.067 24.9804 169.735 24.3969L167.768 23.5197C164.729 22.1745 162.934 20.4201 162.934 17.7013C162.936 14.2512 165.83 12.0004 169.621 12.0004C172.979 11.9719 174.599 13.6657 175.063 14.2227C175.496 14.7191 175.64 15.2458 175.64 15.7138C175.64 17.0003 174.511 17.9646 173.412 17.9646C173.007 17.9646 172.573 17.8472 172.138 17.527C171.5 17.0893 170.951 16.4167 169.677 16.4167C168.692 16.4167 167.97 16.7672 167.97 17.6444C167.97 18.3758 168.434 18.7263 169.619 19.2227L171.819 20.1586C175.002 21.5038 176.711 23.1407 176.711 25.977C176.711 29.7776 173.643 32 169.707 32C167.595 31.9981 165.076 31.1512 163.716 29.8648Z" fill="#783CBD"/>
<path d="M179.668 29.3964V14.6013C179.668 13.1121 180.711 12 182.159 12C183.605 12 184.648 13.1102 184.648 14.6013V19.3966H191.624V14.5445C191.624 13.0534 192.667 12 194.113 12C195.561 12 196.602 13.0534 196.602 14.5445V29.3964C196.602 30.8875 195.531 31.9977 194.113 31.9977C192.695 31.9977 191.624 30.8875 191.624 29.3964V23.9285H184.648V29.3964C184.648 30.8875 183.577 31.9977 182.159 31.9977C180.741 31.9977 179.668 30.8875 179.668 29.3964Z" fill="#783CBD"/>
<path d="M220.167 21.9998C220.167 27.6136 215.622 31.9977 209.833 31.9977C204.044 31.9977 199.558 27.6117 199.558 21.9998C199.558 16.3879 204.073 12 209.833 12C215.622 12 220.167 16.4145 220.167 21.9998Z" fill="#FF8300"/>
<path d="M223.122 29.4562V14.896C223.122 13.4334 224.193 12.3516 225.639 12.3516H230.617C234.988 12.3516 237.999 15.0419 237.999 18.9884C237.999 22.8762 234.93 25.6537 230.617 25.6537H228.1V29.4543C228.1 30.917 227.029 31.9969 225.611 31.9969C224.193 31.9988 223.122 30.917 223.122 29.4562ZM230.647 21.2696C232.036 21.2696 232.934 20.3639 232.934 18.9884C232.934 17.6432 232.037 16.7376 230.647 16.7376H228.1V21.2696H230.647Z" fill="#783CBD"/>
</svg>
